# xmcd CD database file generated by Grip 3.3.0
# 
# Track frame offsets:
#       150
#       17869
#       35874
#       59287
#       78494
#       100131
#       116562
#       133552
#       151704
#       165523
#       193705
# 
# Disc length: 2828 seconds
# 
# Revision: 9
# Processed by: cddbd v1.5.2PL0 Copyright (c) Steve Scherf et al.
# Submitted via: Grip 3.3.0
# 
DISCID=890b0a0b
DTITLE=Vienna Teng - Dreaming Through The Noise
DYEAR=2006
DGENRE=Pop
TTITLE0=Blue Caravan
TTITLE1=Whatever You Want
TTITLE2=Love Turns 40
TTITLE3=I Don't Feel So Well
TTITLE4=City Hall
TTITLE5=Nothing Without You
TTITLE6=Transcontinental, 1:30 A.M.
TTITLE7=1BR/1BA
TTITLE8=Now Three
TTITLE9=Pontchartrain
TTITLE10=Recessional
EXTD=Jerry D. Setty
EXTT0=
EXTT1=
EXTT2=
EXTT3=
EXTT4=
EXTT5=
EXTT6=
EXTT7=
EXTT8=
EXTT9=
EXTT10=
PLAYORDER=
